<svg fill="#000" viewBox="0 0 24.00 24.00" id="wallet-money-2" data-name="Flat Line" xmlns="http://www.w3.org/2000/svg" class="icon flat-line" stroke="#000" transform="matrix(1, 0, 0, 1, 0, 0)"><g id="SVGRepo_bgCarrier" stroke-width="0"></g><g id="SVGRepo_tracerCarrier" stroke-linecap="round" stroke-linejoin="round"></g><g id="SVGRepo_iconCarrier"><path id="secondary" d="M16,13h4V10a1,1,0,0,0-1-1H4a1,1,0,0,0-1,1V20a1,1,0,0,0,1,1H19a1,1,0,0,0,1-1V17H16a1,1,0,0,1-1-1V14A1,1,0,0,1,16,13Z" style="fill: #f4bc22; stroke-width:1.2;"></path><path id="primary" d="M20,17v3a1,1,0,0,1-1,1H4a1,1,0,0,1-1-1V10A1,1,0,0,1,4,9H19a1,1,0,0,1,1,1v3" style="fill: none; stroke: #f4bc22000000; stroke-linecap: round; stroke-linejoin: round; stroke-width:1.2;"></path><path id="primary-2" data-name="primary" d="M17.21,9,19,6.44,14.09,3,9.88,9ZM9.09,4,5.58,9h4.3L12,6ZM21,17H16a1,1,0,0,1-1-1V14a1,1,0,0,1,1-1h5Z" style="fill: none; stroke: #f4bc22000000; stroke-linecap: round; stroke-linejoin: round; stroke-width:1.2;"></path></g></svg>
